name not saved
datacolumns 19
datarows 63
range 19.52 19.582
endheader
time	ground_force1_vx	ground_force1_vy	ground_force1_vz	ground_force1_px	ground_force1_py	ground_force1_pz	ground_force2_vx	ground_force2_vy	ground_force2_vz	ground_force2_px	ground_force2_py	ground_force2_pz	ground_torque1_x	ground_torque1_y	ground_torque1_z	ground_torque2_x	ground_torque2_y	ground_torque2_z
19.52	2.533715172	512.9830443	-23.52164276	-0.1193094236	0	0.2335790572	1.943411482	320.1570073	22.51832597	-0.2142940815	0	-0.2355887046	0	-2.831057365	0	0	0.6922777398	0
19.521	2.388899682	513.090968	-23.39142419	-0.11924795	0	0.2336018697	1.910748389	320.2035679	22.50304752	-0.2143020188	0	-0.235587255	0	-2.792538516	0	0	0.6834899833	0
19.522	2.244712006	513.1962165	-23.25956191	-0.1191862366	0	0.2336252665	1.878468155	320.2473664	22.48638748	-0.21430952	0	-0.2355856184	0	-2.753773509	0	0	0.6747624225	0
19.523	2.101190427	513.2987298	-23.12610503	-0.1191242883	0	0.2336492284	1.846606691	320.288265	22.46828693	-0.2143165729	0	-0.2355837932	0	-2.71477507	0	0	0.6661030008	0
19.524	1.958371408	513.3984523	-22.99110463	-0.1190621098	0	0.2336737356	1.815199417	320.3261313	22.44868841	-0.2143231659	0	-0.2355817784	0	-2.675556108	0	0	0.6575195683	0
19.525	1.816289585	513.4953326	-22.85461374	-0.1189997059	0	0.2336987674	1.78428122	320.3608381	22.42753606	-0.214329288	0	-0.2355795728	0	-2.636129708	0	0	0.64901987	0
19.526	1.674977769	513.5893241	-22.71668725	-0.1189370814	0	0.2337243025	1.753886414	320.3922641	22.40477573	-0.2143349288	0	-0.2355771756	0	-2.596509123	0	0	0.6406115341	0
19.527	1.534466958	513.6803843	-22.57738195	-0.1188742412	0	0.2337503187	1.724048693	320.4202939	22.38035507	-0.2143400786	0	-0.2355745861	0	-2.556707772	0	0	0.6323020607	0
19.528	1.394786346	513.7684753	-22.43675645	-0.1188111901	0	0.2337767933	1.694801094	320.4448178	22.35422365	-0.2143447282	0	-0.235571804	0	-2.516739233	0	0	0.6240988101	0
19.529	1.255963344	513.8535638	-22.29487114	-0.1187479332	0	0.2338037028	1.666175955	320.4657325	22.32633305	-0.2143488693	0	-0.2355688289	0	-2.476617233	0	0	0.6160089925	0
19.53	1.118023608	513.935621	-22.15178813	-0.1186844755	0	0.2338310231	1.638204879	320.4829408	22.29663696	-0.214352494	0	-0.2355656608	0	-2.436355648	0	0	0.6080396569	0
19.531	0.9809910637	514.0146225	-22.00757123	-0.1186208221	0	0.2338587294	1.610918691	320.496352	22.26509127	-0.2143555955	0	-0.2355622999	0	-2.39596849	0	0	0.6001976812	0
19.532	0.8448879474	514.0905487	-21.86228587	-0.1185569782	0	0.2338867963	1.584347401	320.5058818	22.23165416	-0.2143581673	0	-0.2355587465	0	-2.355469906	0	0	0.5924897621	0
19.533	0.7097348437	514.1633844	-21.71599904	-0.118492949	0	0.2339151979	1.558520174	320.5114525	22.1962862	-0.2143602039	0	-0.2355550011	0	-2.31487417	0	0	0.5849224056	0
19.534	0.5755507323	514.233119	-21.56877924	-0.11842874	0	0.2339439076	1.533465285	320.5129931	22.15895037	-0.2143617005	0	-0.2355510644	0	-2.274195676	0	0	0.577501918	0
19.535	0.4423530381	514.2997464	-21.42069641	-0.1183643567	0	0.2339728985	1.509210093	320.5104394	22.11961223	-0.2143626529	0	-0.2355469374	0	-2.233448932	0	0	0.5702343968	0
19.536	0.3101576857	514.3632651	-21.27182185	-0.1182998047	0	0.234002143	1.485781001	320.5037337	22.07823989	-0.2143630579	0	-0.2355426212	0	-2.192648555	0	0	0.5631257231	0
19.537	0.1789791584	514.4236779	-21.12222815	-0.1182350897	0	0.2340316131	1.463203427	320.4928254	22.03480412	-0.2143629128	0	-0.2355381172	0	-2.151809262	0	0	0.5561815529	0
19.538	0.0488305615	514.4809924	-20.97198913	-0.1181702177	0	0.2340612803	1.441501773	320.4776708	21.98927845	-0.214362216	0	-0.2355334266	0	-2.110945868	0	0	0.5494073105	0
19.539	-0.08027631173	514.5352203	-20.82117973	-0.1181051946	0	0.2340911159	1.42069939	320.4582329	21.94163912	-0.2143609663	0	-0.2355285514	0	-2.070073273	0	0	0.5428081808	0
19.54	-0.2083309094	514.5863778	-20.66987594	-0.1180400268	0	0.2341210906	1.400818556	320.4344816	21.89186524	-0.2143591637	0	-0.2355234933	0	-2.029206461	0	0	0.5363891035	0
19.541	-0.3353238477	514.6344855	-20.51815472	-0.1179747205	0	0.2341511751	1.381880443	320.4063938	21.83993875	-0.2143568085	0	-0.2355182543	0	-1.988360494	0	0	0.5301547664	0
19.542	-0.4612468348	514.6795681	-20.3660939	-0.1179092822	0	0.2341813394	1.363905092	320.3739533	21.78584451	-0.2143539022	0	-0.2355128366	0	-1.947550497	0	0	0.5241096008	0
19.543	-0.5860925917	514.7216546	-20.21377207	-0.1178437188	0	0.2342115537	1.346911385	320.3371504	21.72957031	-0.2143504469	0	-0.2355072427	0	-1.90679166	0	0	0.5182577755	0
19.544	-0.7098547709	514.7607781	-20.06126852	-0.1177780371	0	0.2342417877	1.330917029	320.2959826	21.67110689	-0.2143464455	0	-0.2355014751	0	-1.866099224	0	0	0.5126031932	0
19.545	-0.832527873	514.7969758	-19.90866312	-0.1177122443	0	0.234272011	1.315938522	320.2504538	21.61044801	-0.2143419015	0	-0.2354955364	0	-1.825488475	0	0	0.5071494862	0
19.546	-0.9541071612	514.8302888	-19.7560362	-0.1176463475	0	0.2343021933	1.301991144	320.2005747	21.54759038	-0.2143368195	0	-0.2354894296	0	-1.784974738	0	0	0.5019000131	0
19.547	-1.074588575	514.8607619	-19.60346849	-0.1175803544	0	0.234332304	1.289088928	320.1463625	21.48253376	-0.2143312046	0	-0.2354831577	0	-1.744573362	0	0	0.4968578558	0
19.548	-1.193968641	514.888444	-19.45104096	-0.1175142726	0	0.2343623126	1.27724465	320.0878411	21.41528092	-0.2143250627	0	-0.2354767239	0	-1.704299714	0	0	0.4920258175	0
19.549	-1.312244388	514.9133874	-19.29883479	-0.1174481102	0	0.2343921886	1.266469806	320.0250403	21.34583763	-0.2143184004	0	-0.2354701314	0	-1.664169172	0	0	0.4874064211	0
19.55	-1.42941325	514.9356481	-19.14693116	-0.1173818751	0	0.2344219017	1.256774604	319.9579967	21.27421269	-0.2143112252	0	-0.2354633837	0	-1.624197105	0	0	0.483001908	0
19.551	-1.545472987	514.9552853	-18.99541122	-0.1173155759	0	0.2344514215	1.248167948	319.8867525	21.20041788	-0.214303545	0	-0.2354564845	0	-1.58439887	0	0	0.4788142378	0
19.552	-1.660421587	514.9723617	-18.84435597	-0.1172492211	0	0.234480718	1.240657429	319.8113563	21.12446799	-0.2142953686	0	-0.2354494374	0	-1.544789797	0	0	0.4748450884	0
19.553	-1.774257181	514.9869431	-18.69384608	-0.1171828195	0	0.2345097613	1.234249315	319.7318624	21.04638074	-0.2142867055	0	-0.2354422463	0	-1.505385175	0	0	0.4710958574	0
19.554	-1.886977959	514.9990983	-18.54396189	-0.1171163801	0	0.2345385219	1.228948544	319.6483306	20.96617679	-0.2142775657	0	-0.2354349152	0	-1.466200238	0	0	0.4675676629	0
19.555	-1.998582076	515.0088991	-18.39478317	-0.1170499122	0	0.2345669705	1.224758721	319.5608265	20.88387971	-0.2142679598	0	-0.2354274482	0	-1.427250157	0	0	0.4642613463	0
19.556	-2.109067573	515.0164199	-18.24638913	-0.1169834252	0	0.2345950783	1.221682113	319.4694208	20.79951591	-0.2142578992	0	-0.2354198495	0	-1.388550015	0	0	0.4611774747	0
19.557	-2.218432296	515.0217377	-18.09885821	-0.1169169289	0	0.2346228169	1.219719648	319.3741894	20.71311462	-0.2142473958	0	-0.2354121233	0	-1.350114802	0	0	0.4583163442	0
19.558	-2.326673812	515.0249321	-17.95226802	-0.1168504331	0	0.2346501582	1.218870916	319.2752133	20.62470781	-0.214236462	0	-0.235404274	0	-1.311959395	0	0	0.4556779839	0
19.559	-2.433789334	515.0260848	-17.80669522	-0.1167839478	0	0.234677075	1.219134171	319.172578	20.53433019	-0.2142251107	0	-0.2353963063	0	-1.274098541	0	0	0.4532621604	0
19.56	-2.53977565	515.0252797	-17.66221541	-0.1167174835	0	0.2347035402	1.220506335	319.0663736	20.44201908	-0.2142133556	0	-0.2353882245	0	-1.236546841	0	0	0.4510683822	0
19.561	-2.644629052	515.0226025	-17.518903	-0.1166510504	0	0.2347295278	1.222983005	318.9566947	20.34781441	-0.2142012104	0	-0.2353800335	0	-1.199318736	0	0	0.4490959055	0
19.562	-2.748345271	515.0181408	-17.37683113	-0.1165846594	0	0.2347550122	1.226558459	318.8436398	20.2517586	-0.2141886898	0	-0.2353717379	0	-1.162428488	0	0	0.4473437399	0
19.563	-2.850919417	515.0119839	-17.23607156	-0.1165183212	0	0.2347799684	1.231225669	318.7273114	20.15389651	-0.2141758086	0	-0.2353633426	0	-1.125890161	0	0	0.4458106543	0
19.564	-2.952345922	515.0042224	-17.09669455	-0.1164520468	0	0.2348043725	1.236976309	318.6078155	20.05427536	-0.214162582	0	-0.2353548524	0	-1.089717606	0	0	0.4444951836	0
19.565	-3.052618493	514.994948	-16.95876878	-0.1163858473	0	0.2348282012	1.243800769	318.4852616	19.95294463	-0.2141490257	0	-0.2353462723	0	-1.053924443	0	0	0.4433956354	0
19.566	-3.151730067	514.9842538	-16.82236122	-0.116319734	0	0.2348514319	1.251688172	318.3597623	19.849956	-0.2141351558	0	-0.2353376073	0	-1.018524043	0	0	0.4425100973	0
19.567	-3.249672769	514.9722335	-16.68753707	-0.1162537184	0	0.2348740432	1.260626389	318.2314333	19.74536325	-0.2141209886	0	-0.2353288624	0	-0.98352951	0	0	0.4418364439	0
19.568	-3.346437885	514.9589817	-16.55435966	-0.1161878119	0	0.2348960144	1.270602059	318.1003926	19.63922215	-0.2141065406	0	-0.2353200429	0	-0.9489536646	0	0	0.4413723447	0
19.569	-3.442015833	514.9445934	-16.42289032	-0.1161220262	0	0.2349173257	1.281600605	317.9667609	19.53159038	-0.2140918289	0	-0.2353111537	0	-0.9148090257	0	0	0.4411152714	0
19.57	-3.536396145	514.929164	-16.29318835	-0.1160563729	0	0.2349379585	1.293606265	317.830661	19.42252745	-0.2140768706	0	-0.2353022001	0	-0.8811077941	0	0	0.441062506	0
19.571	-3.629567455	514.912789	-16.1653109	-0.1159908641	0	0.2349578951	1.306602104	317.6922177	19.31209454	-0.214061683	0	-0.2352931874	0	-0.8478618348	0	0	0.4412111488	0
19.572	-3.721517495	514.895564	-16.03931288	-0.1159255114	0	0.2349771187	1.320570051	317.5515571	19.20035446	-0.2140462837	0	-0.2352841207	0	-0.815082661	0	0	0.4415581259	0
19.573	-3.812233093	514.8775843	-15.91524691	-0.1158603268	0	0.2349956139	1.335490919	317.4088072	19.08737151	-0.2140306903	0	-0.2352750054	0	-0.7827814173	0	0	0.4421001979	0
19.574	-3.901700187	514.8589449	-15.79316325	-0.1157953223	0	0.2350133661	1.351344437	317.2640969	18.97321137	-0.2140149207	0	-0.2352658466	0	-0.7509688635	0	0	0.4428339674	0
19.575	-3.989903838	514.8397402	-15.6731097	-0.1157305099	0	0.235030362	1.368109281	317.1175559	18.857941	-0.2139989928	0	-0.2352566499	0	-0.7196553591	0	0	0.4437558871	0
19.576	-4.076828255	514.8200638	-15.55513155	-0.1156659016	0	0.2350465893	1.385763104	316.9693147	18.74162852	-0.2139829246	0	-0.2352474203	0	-0.6888508476	0	0	0.4448622679	0
19.577	-4.162456823	514.8000086	-15.43927151	-0.1156015094	0	0.235062037	1.404282575	316.8195041	18.62434313	-0.213966734	0	-0.2352381633	0	-0.6585648415	0	0	0.4461492868	0
19.578	-4.246772143	514.7796663	-15.32556968	-0.1155373454	0	0.2350766953	1.423643411	316.6682553	18.50615492	-0.2139504392	0	-0.2352288842	0	-0.6288064072	0	0	0.4476129948	0
19.579	-4.329756073	514.7591273	-15.21406346	-0.1154734214	0	0.2350905554	1.443820418	316.515699	18.38713484	-0.2139340582	0	-0.2352195882	0	-0.5995841511	0	0	0.4492493244	0
19.58	-4.411389783	514.7384807	-15.10478752	-0.1154097495	0	0.2351036099	1.464787527	316.3619659	18.26735455	-0.2139176089	0	-0.2352102806	0	-0.5709062051	0	0	0.4510540977	0
19.581	-4.491653807	514.7178141	-14.99777375	-0.1153463414	0	0.2351158524	1.486517837	316.207186	18.14688628	-0.2139011093	0	-0.2352009667	0	-0.5427802129	0	0	0.4530230338	0
19.582	-4.570528108	514.6972132	-14.8930512	-0.115283209	0	0.2351272781	1.508983659	316.0514884	18.02580274	-0.2138845773	0	-0.2351916517	0	-0.5152133167	0	0	0.4551517563	0
